HIERARCHY
ROOT Hips
{
	OFFSET 0.000000 0.000000 0.000000
	CHANNELS 6 Xposition Yposition Zposition Xrotation Yrotation Zrotation
	JOINT LeftUpLeg_virtual
	{
		OFFSET 0.000000 0.000000 0.000000
		CHANNELS 3 Xrotation Yrotation Zrotation
		JOINT LeftUpLeg
		{
			OFFSET 13.026900 -6.336304 -1.092800
			CHANNELS 3 Xrotation Yrotation Zrotation
			JOINT LeftLeg
			{
				OFFSET 0.524474 -46.096886 9.782700
				CHANNELS 3 Xrotation Yrotation Zrotation
				JOINT LeftFoot
				{
					OFFSET -0.524474 -53.427422 -12.948200
					CHANNELS 3 Xrotation Yrotation Zrotation
					JOINT LeftToeBase
					{
						OFFSET 0.192200 -14.009700 16.364100
						CHANNELS 3 Xrotation Yrotation Zrotation
						JOINT LeftToe_End
						{
							OFFSET -1.784700 -0.561700 9.474800
							CHANNELS 3 Xrotation Yrotation Zrotation
							End Site
							{
								OFFSET 0 0 0
							}
						}
					}
				}
			}
		}
	}
	JOINT RightUpLeg_virtual
	{
		OFFSET 0.000000 0.000000 0.000000
		CHANNELS 3 Xrotation Yrotation Zrotation
		JOINT RightUpLeg
		{
			OFFSET -12.883000 -6.336304 -1.092800
			CHANNELS 3 Xrotation Yrotation Zrotation
			JOINT RightLeg
			{
				OFFSET -0.524587 -46.096825 9.782800
				CHANNELS 3 Xrotation Yrotation Zrotation
				JOINT RightFoot
				{
					OFFSET 0.524587 -53.427383 -12.948300
					CHANNELS 3 Xrotation Yrotation Zrotation
					JOINT RightToeBase
					{
						OFFSET -0.192200 -14.009700 16.364100
						CHANNELS 3 Xrotation Yrotation Zrotation
						JOINT RightToe_End
						{
							OFFSET 1.784700 -0.561700 9.474800
							CHANNELS 3 Xrotation Yrotation Zrotation
							End Site
							{
								OFFSET 0 0 0
							}
						}
					}
				}
			}
		}
	}
	JOINT Spine_virtual
	{
		OFFSET 0.000000 0.000000 0.000000
		CHANNELS 3 Xrotation Yrotation Zrotation
		JOINT Spine
		{
			OFFSET 0.072000 7.257294 -0.789700
			CHANNELS 3 Xrotation Yrotation Zrotation
			JOINT Spine1
			{
				OFFSET 0.000000 12.508769 -0.658067
				CHANNELS 3 Xrotation Yrotation Zrotation
				JOINT Spine1_split
				{
					OFFSET 0.000000 12.508769 -0.658067
					CHANNELS 3 Xrotation Yrotation Zrotation
					JOINT Spine2
					{
						OFFSET 0.000000 12.508769 -0.658067
						CHANNELS 3 Xrotation Yrotation Zrotation
						JOINT Neck_virtual
						{
							OFFSET 0.000000 0.000000 0.000000
							CHANNELS 3 Xrotation Yrotation Zrotation
							JOINT Neck
							{
								OFFSET 0.000000 14.033295 7.520400
								CHANNELS 3 Xrotation Yrotation Zrotation
								JOINT Head
								{
									OFFSET 0.000000 8.198502 5.703100
									CHANNELS 3 Xrotation Yrotation Zrotation
									JOINT HeadTop_End
									{
										OFFSET 0.000000 17.760803 13.332701
										CHANNELS 3 Xrotation Yrotation Zrotation
										End Site
										{
											OFFSET 0 0 0
										}
									}
								}
							}
						}
						JOINT LeftShoulder_virtual
						{
							OFFSET 0.000000 0.000000 0.000000
							CHANNELS 3 Xrotation Yrotation Zrotation
							JOINT LeftShoulder
							{
								OFFSET 6.292450 5.785301 -0.669000
								CHANNELS 3 Xrotation Yrotation Zrotation
								JOINT LeftShoulder_split
								{
									OFFSET 6.292450 5.785301 -0.669000
									CHANNELS 3 Xrotation Yrotation Zrotation
									JOINT LeftArm
									{
										OFFSET 13.907140 -6.093903 1.965100
										CHANNELS 3 Xrotation Yrotation Zrotation
										JOINT LeftForeArm
										{
											OFFSET 34.140198 0.000000 0.000000
											CHANNELS 3 Xrotation Yrotation Zrotation
											JOINT LeftHand
											{
												OFFSET 40.960209 0.000000 0.000000
												CHANNELS 3 Xrotation Yrotation Zrotation
												End Site
												{
													OFFSET 0 0 0
												}
											}
										}
									}
								}
							}
						}
						JOINT RightShoulder_virtual
						{
							OFFSET 0.000000 0.000000 0.000000
							CHANNELS 3 Xrotation Yrotation Zrotation
							JOINT RightShoulder
							{
								OFFSET -6.292450 5.785301 -0.669000
								CHANNELS 3 Xrotation Yrotation Zrotation
								JOINT RightShoulder_split
								{
									OFFSET -6.292450 5.785301 -0.669000
									CHANNELS 3 Xrotation Yrotation Zrotation
									JOINT RightArm
									{
										OFFSET -13.907140 -6.093903 1.965100
										CHANNELS 3 Xrotation Yrotation Zrotation
										JOINT RightForeArm
										{
											OFFSET -34.140198 0.000000 0.000000
											CHANNELS 3 Xrotation Yrotation Zrotation
											JOINT RightHand
											{
												OFFSET -40.960209 0.000000 0.000000
												CHANNELS 3 Xrotation Yrotation Zrotation
												End Site
												{
													OFFSET 0 0 0
												}
											}
										}
									}
								}
							}
						}
					}
				}
			}
		}
	}
}
MOTION
Frames: 6
Frame Time: 0.03333333
1.953391 115.370613 -1.838722 0.000000 0.000000 0.000000 -0.593424 -2.094628 -3.146110 -29.126006 -6.329054 5.326074 48.712817 -2.497397 -0.577018 15.354349 -2.670340 8.961016 -12.200155 -0.599160 0.629913 0.000000 0.000000 0.000000 -0.230794 -0.502884 -3.480230 -18.338192 -13.975791 5.579830 37.106652 6.081723 0.846117 7.071840 -1.446989 -5.388176 -18.456646 0.623873 2.961736 0.000000 0.000000 0.000000 -4.694610 4.106692 -2.508250 6.899935 1.711612 0.355622 -2.537497 -0.748813 1.885325 -0.193497 1.042696 -0.784174 0.000000 0.000000 0.000000 -2.708626 -0.184750 1.622200 -2.811343 -2.588426 2.196552 3.104051 1.182462 2.900529 0.000000 0.000000 0.000000 -2.372462 0.031979 1.840451 0.472829 2.123679 -0.970786 1.936622 -2.017903 0.530328 0.283604 2.114668 -71.462999 24.028295 -15.556097 1.494200 0.000000 0.000000 0.000000 -1.716803 -0.153191 1.697432 0.807195 4.361235 5.663468 -3.303799 0.594371 -2.257077 -6.772361 7.148715 78.084724 12.048361 18.976357 -3.245127 0.000000 0.000000 0.000000 
1.995886 115.526154 0.700634 0.000000 0.000000 0.000000 -0.761619 -2.528112 -3.218406 -30.384742 -4.915913 4.939692 42.932933 -1.497544 -1.056343 15.784197 -2.264557 10.892603 -12.309351 -0.586732 0.752838 0.000000 0.000000 0.000000 0.384837 -0.886664 -3.569665 -18.263998 -13.321676 5.263004 37.760537 6.641163 0.855821 8.578478 -0.887928 -5.823883 -19.610335 0.403532 3.277515 0.000000 0.000000 0.000000 -3.853927 3.297000 -3.140913 6.903202 1.883652 0.571709 -2.577861 -0.675478 1.858111 0.003805 0.636214 -0.492795 0.000000 0.000000 0.000000 -2.617230 -0.159435 1.602348 -2.672482 -2.427148 1.756807 3.412055 1.180837 2.997533 0.000000 0.000000 0.000000 -2.620328 0.112728 1.814890 0.542384 2.645389 -1.201672 1.153528 -2.359482 -0.187622 0.587373 2.183354 -71.282593 24.118884 -16.174252 1.731050 0.000000 0.000000 0.000000 -1.832839 -0.123943 1.718542 0.826350 4.394613 5.188139 -2.810150 0.800150 -2.309016 -7.788542 7.502496 77.973310 12.128377 18.803470 -3.464020 0.000000 0.000000 0.000000 
2.312526 116.109039 3.866882 0.000000 0.000000 0.000000 -0.675832 -2.802198 -3.255302 -31.078635 -3.418451 4.394884 33.504718 -0.940573 -1.223533 19.035869 -1.819161 10.198623 -13.230268 -0.550323 0.560093 0.000000 0.000000 0.000000 0.807209 -1.473096 -3.596927 -17.085168 -12.857015 4.608274 38.071973 7.672515 0.709736 9.590239 0.628988 -6.267478 -21.916919 0.320818 3.416311 0.000000 0.000000 0.000000 -2.716884 2.306748 -3.693820 6.860344 2.005045 1.061486 -2.638182 -0.576470 1.847349 0.568600 0.317247 -0.141051 0.000000 0.000000 0.000000 -2.549137 -0.116598 1.595030 -2.818598 -1.900875 0.820118 3.679724 1.331399 2.740024 0.000000 0.000000 0.000000 -2.861156 0.218625 1.785597 0.610047 3.904087 -2.041517 -0.112235 -2.970667 -0.889195 1.194266 2.710835 -71.602246 24.561637 -16.492463 2.200091 0.000000 0.000000 0.000000 -1.888787 -0.099852 1.645839 0.897927 4.363164 4.306203 -2.418113 0.892986 -1.963187 -9.234299 8.925070 77.374855 12.074262 18.603277 -3.554917 0.000000 0.000000 0.000000 
2.902081 116.724823 7.191227 0.000000 0.000000 0.000000 -0.516258 -2.979019 -3.162749 -31.201315 -1.832321 4.067364 23.171058 -0.964843 -1.242324 24.599920 -1.556866 7.135120 -15.876623 -0.487476 0.469090 0.000000 0.000000 0.000000 0.968402 -2.297249 -3.563924 -14.872307 -12.760889 3.712102 37.676034 8.931984 0.536815 9.304558 2.570548 -6.951084 -24.255089 0.440496 3.347442 0.000000 0.000000 0.000000 -1.801668 1.318814 -4.099042 6.780815 2.045138 1.724772 -2.683825 -0.516940 1.889143 1.099576 0.074601 0.232346 0.000000 0.000000 0.000000 -2.534844 -0.117536 1.662910 -3.295065 -1.076752 -0.380909 3.894520 1.585630 2.213863 0.000000 0.000000 0.000000 -3.051828 0.282281 1.817036 0.705519 5.734642 -3.318020 -1.395757 -3.671369 -1.183127 2.171682 3.534555 -72.186473 25.160516 -16.323657 2.754022 0.000000 0.000000 0.000000 -1.935641 -0.143429 1.546178 1.011717 4.238150 3.090969 -2.141403 0.831898 -1.440299 -10.676830 10.817654 76.682868 11.865131 18.820842 -3.513844 0.000000 0.000000 0.000000 
3.561474 116.977921 10.730843 0.000000 0.000000 0.000000 -0.609254 -3.295407 -2.953329 -31.434399 -0.098250 3.888942 14.847057 -1.757789 -1.294826 31.004602 -1.855800 2.769933 -19.426607 -0.337488 0.632135 0.000000 0.000000 0.000000 0.853808 -3.134814 -3.515106 -11.688940 -13.266838 2.715846 36.440729 10.078850 0.421267 7.229812 4.367416 -7.730465 -25.803297 0.706782 3.056165 0.000000 0.000000 0.000000 -1.062726 0.614120 -4.327331 6.668689 2.006894 2.362522 -2.651577 -0.527793 2.019368 1.113340 0.170196 0.432032 0.000000 0.000000 0.000000 -2.575446 -0.199833 1.865138 -4.066890 -0.124688 -1.524091 4.013760 1.873409 1.564786 0.000000 0.000000 0.000000 -3.176624 0.270519 1.967200 0.864014 7.773766 -4.725077 -2.206670 -4.220763 -1.076179 3.281082 4.265529 -72.834132 25.629132 -15.621729 3.181956 0.000000 0.000000 0.000000 -1.996374 -0.269244 1.511744 1.131642 4.073687 1.723109 -1.836868 0.803599 -0.953511 -11.833459 12.493090 76.350156 11.500096 19.697060 -3.344402 0.000000 0.000000 0.000000 
4.210839 116.409241 14.849232 0.000000 0.000000 0.000000 -1.008780 -4.007579 -2.678843 -31.808649 2.070075 3.642772 10.289615 -2.676867 -1.676882 35.418547 -2.013958 -0.481673 -21.784584 -0.065454 0.657665 0.000000 0.000000 0.000000 0.345729 -3.548769 -3.462599 -7.912146 -14.152723 1.671999 34.754192 10.954519 0.392780 3.484205 5.622292 -7.994459 -25.946751 1.016429 2.586216 0.000000 0.000000 0.000000 -0.884695 -0.081890 -4.346446 6.523103 1.887582 2.747591 -2.519602 -0.600847 2.222315 0.851509 0.467663 0.431246 0.000000 0.000000 0.000000 -2.651010 -0.366263 2.164819 -5.028335 0.805643 -2.306540 4.001544 2.153151 0.967905 0.000000 0.000000 0.000000 -3.222393 0.185494 2.231219 1.067848 9.496398 -5.919082 -2.460246 -4.686240 -0.729837 4.304228 4.629515 -73.407069 25.702516 -14.288791 3.326001 0.000000 0.000000 0.000000 -2.069511 -0.451691 1.603996 1.228722 3.955780 0.377636 -1.420912 0.763785 -0.526628 -12.422395 13.348783 76.747147 11.044180 20.999750 -3.088960 0.000000 0.000000 0.000000 
